# xmcd CD database file
#
# Track frame offsets:
#	150
#	15307
#	34845
#	52037
#	70045
#	91332
#	106220
#	131702
#	154055
#
# Disc length: 2529 seconds
#
# Revision: 0
# Processed by: cddbd v1.4PL0 Copyright (c) Steve Scherf et al.
# Submitted via: CDex 1.50beta10
#
DISCID=6c09df09
DTITLE=Norman Connors - This is your life
DYEAR=1977
DGENRE=Jazz
TTITLE0=Stella
TTITLE1=This is your life
TTITLE2=Wouldn't you like to see
TTITLE3=Listen
TTITLE4=Say you love me
TTITLE5=Captain Connors
TTITLE6=You make me feel brand new
TTITLE7=Butterfly
TTITLE8=The Creator has a master plan
EXTD=YEAR: 1977
EXTT0=
EXTT1=
EXTT2=
EXTT3=
EXTT4=
EXTT5=
EXTT6=
EXTT7=
EXTT8=
PLAYORDER=
